HIERARCHY
ROOT Hips
{
	OFFSET 0.000000 0.000000 0.000000
	CHANNELS 6 Xposition Yposition Zposition Xrotation Yrotation Zrotation
	JOINT Thigh.L
	{
		OFFSET 0.054054 0.026765 -0.093000
		CHANNELS 3 Xrotation Yrotation Zrotation
		JOINT Shin.L
		{
			OFFSET 0.060604 0.006167 -0.407534
			CHANNELS 3 Xrotation Yrotation Zrotation
			JOINT Foot.L
			{
				OFFSET -0.041526 0.030926 -0.431552
				CHANNELS 3 Xrotation Yrotation Zrotation
				JOINT Toe.L
				{
					OFFSET 0.047604 -0.125533 -0.063646
					CHANNELS 3 Xrotation Yrotation Zrotation
					End Site
					{
						OFFSET 0.000000 0.050000 0.000000
					}
				}
			}
		}
	}
	JOINT Thigh.R
	{
		OFFSET -0.059134 0.021123 -0.105519
		CHANNELS 3 Xrotation Yrotation Zrotation
		JOINT Shin.R
		{
			OFFSET -0.049612 0.014046 -0.389039
			CHANNELS 3 Xrotation Yrotation Zrotation
			JOINT Foot.R
			{
				OFFSET 0.013856 0.019302 -0.440511
				CHANNELS 3 Xrotation Yrotation Zrotation
				JOINT Toe.R
				{
					OFFSET -0.039233 -0.126395 -0.063596
					CHANNELS 3 Xrotation Yrotation Zrotation
					End Site
					{
						OFFSET 0.000000 0.050000 0.000000
					}
				}
			}
		}
	}
	JOINT Spine
	{
		OFFSET -0.002537 0.027177 0.111301
		CHANNELS 3 Xrotation Yrotation Zrotation
		JOINT Spine.2
		{
			OFFSET 0.008527 0.006777 0.138122
			CHANNELS 3 Xrotation Yrotation Zrotation
			JOINT Chest
			{
				OFFSET -0.010479 -0.021506 0.055402
				CHANNELS 3 Xrotation Yrotation Zrotation
				JOINT Neck
				{
					OFFSET -0.011801 0.024818 0.168673
					CHANNELS 3 Xrotation Yrotation Zrotation
					JOINT Head
					{
						OFFSET 0.024898 -0.021990 0.173905
						CHANNELS 3 Xrotation Yrotation Zrotation
						End Site
						{
							OFFSET 0.000000 0.050000 0.000000
						}
					}
				}
				JOINT Clavicle.L
				{
					OFFSET 0.046743 0.004563 0.086671
					CHANNELS 3 Xrotation Yrotation Zrotation
					JOINT UpperArm.L
					{
						OFFSET 0.125579 0.013178 0.056696
						CHANNELS 3 Xrotation Yrotation Zrotation
						JOINT ForeArm.L
						{
							OFFSET 0.268068 0.042208 -0.074952
							CHANNELS 3 Xrotation Yrotation Zrotation
							JOINT Hand.L
							{
								OFFSET 0.271728 0.001012 0.021317
								CHANNELS 3 Xrotation Yrotation Zrotation
								JOINT Thumb1.L
								{
									OFFSET 0.154632 0.000445 0.009385
									CHANNELS 3 Xrotation Yrotation Zrotation
									JOINT Thumb2.L
									{
										OFFSET 0.029908 0.000111 0.002346
										CHANNELS 3 Xrotation Yrotation Zrotation
										End Site
										{
											OFFSET 0.024923 0.000093 0.001955
										}
									}
								}
								JOINT Index1.L
								{
									OFFSET 0.137632 0.000445 0.009385
									CHANNELS 3 Xrotation Yrotation Zrotation
									JOINT Index2.L
									{
										OFFSET 0.029908 0.000111 0.002346
										CHANNELS 3 Xrotation Yrotation Zrotation
										JOINT Index3.L
										{
											OFFSET 0.021932 0.000082 0.001721
											CHANNELS 3 Xrotation Yrotation Zrotation
											End Site
											{
												OFFSET 0.017945 0.000067 0.001408
											}
										}
									}
								}
								JOINT Middle1.L
								{
									OFFSET 0.119632 0.000445 0.009385
									CHANNELS 3 Xrotation Yrotation Zrotation
									JOINT Middle2.L
									{
										OFFSET 0.030905 0.000115 0.002424
										CHANNELS 3 Xrotation Yrotation Zrotation
										JOINT Middle3.L
										{
											OFFSET 0.021932 0.000082 0.001721
											CHANNELS 3 Xrotation Yrotation Zrotation
											End Site
											{
												OFFSET 0.017945 0.000067 0.001408
											}
										}
									}
								}
								JOINT Ring1.L
								{
									OFFSET 0.101632 0.000445 0.009385
									CHANNELS 3 Xrotation Yrotation Zrotation
									JOINT Ring2.L
									{
										OFFSET 0.028911 0.000108 0.002268
										CHANNELS 3 Xrotation Yrotation Zrotation
										JOINT Ring3.L
										{
											OFFSET 0.019939 0.000074 0.001564
											CHANNELS 3 Xrotation Yrotation Zrotation
											End Site
											{
												OFFSET 0.016948 0.000063 0.001330
											}
										}
									}
								}
								JOINT Pinky1.L
								{
									OFFSET 0.085632 0.000445 0.009385
									CHANNELS 3 Xrotation Yrotation Zrotation
									JOINT Pinky2.L
									{
										OFFSET 0.023926 0.000089 0.001877
										CHANNELS 3 Xrotation Yrotation Zrotation
										JOINT Pinky3.L
										{
											OFFSET 0.016948 0.000063 0.001330
											CHANNELS 3 Xrotation Yrotation Zrotation
											End Site
											{
												OFFSET 0.013957 0.000052 0.001095
											}
										}
									}
								}
							}
						}
					}
				}
				JOINT Clavicle.R
				{
					OFFSET -0.047372 0.010608 0.085690
					CHANNELS 3 Xrotation Yrotation Zrotation
					JOINT UpperArm.R
					{
						OFFSET -0.109019 0.009259 0.053228
						CHANNELS 3 Xrotation Yrotation Zrotation
						JOINT ForeArm.R
						{
							OFFSET -0.286113 0.027546 -0.040100
							CHANNELS 3 Xrotation Yrotation Zrotation
							JOINT Hand.R
							{
								OFFSET -0.268034 0.014423 -0.005854
								CHANNELS 3 Xrotation Yrotation Zrotation
								JOINT Thumb1.R
								{
									OFFSET -0.154798 0.006447 -0.002617
									CHANNELS 3 Xrotation Yrotation Zrotation
									JOINT Thumb2.R
									{
										OFFSET -0.029950 0.001612 -0.000654
										CHANNELS 3 Xrotation Yrotation Zrotation
										End Site
										{
											OFFSET -0.024958 0.001343 -0.000545
										}
									}
								}
								JOINT Index1.R
								{
									OFFSET -0.137798 0.006447 -0.002617
									CHANNELS 3 Xrotation Yrotation Zrotation
									JOINT Index2.R
									{
										OFFSET -0.029950 0.001612 -0.000654
										CHANNELS 3 Xrotation Yrotation Zrotation
										JOINT Index3.R
										{
											OFFSET -0.021963 0.001182 -0.000480
											CHANNELS 3 Xrotation Yrotation Zrotation
											End Site
											{
												OFFSET -0.017970 0.000967 -0.000392
											}
										}
									}
								}
								JOINT Middle1.R
								{
									OFFSET -0.119798 0.006447 -0.002617
									CHANNELS 3 Xrotation Yrotation Zrotation
									JOINT Middle2.R
									{
										OFFSET -0.030948 0.001665 -0.000676
										CHANNELS 3 Xrotation Yrotation Zrotation
										JOINT Middle3.R
										{
											OFFSET -0.021963 0.001182 -0.000480
											CHANNELS 3 Xrotation Yrotation Zrotation
											End Site
											{
												OFFSET -0.017970 0.000967 -0.000392
											}
										}
									}
								}
								JOINT Ring1.R
								{
									OFFSET -0.101798 0.006447 -0.002617
									CHANNELS 3 Xrotation Yrotation Zrotation
									JOINT Ring2.R
									{
										OFFSET -0.028951 0.001558 -0.000632
										CHANNELS 3 Xrotation Yrotation Zrotation
										JOINT Ring3.R
										{
											OFFSET -0.019966 0.001074 -0.000436
											CHANNELS 3 Xrotation Yrotation Zrotation
											End Site
											{
												OFFSET -0.016971 0.000913 -0.000371
											}
										}
									}
								}
								JOINT Pinky1.R
								{
									OFFSET -0.085798 0.006447 -0.002617
									CHANNELS 3 Xrotation Yrotation Zrotation
									JOINT Pinky2.R
									{
										OFFSET -0.023960 0.001289 -0.000523
										CHANNELS 3 Xrotation Yrotation Zrotation
										JOINT Pinky3.R
										{
											OFFSET -0.016971 0.000913 -0.000371
											CHANNELS 3 Xrotation Yrotation Zrotation
											End Site
											{
												OFFSET -0.013976 0.000752 -0.000305
											}
										}
									}
								}
							}
						}
					}
				}
			}
		}
	}
}
MOTION
Frames: 4
Frame Time: 0.03333333
0.010716 -0.054159 1.224641 -6.756040 -1.205330 2.229736 7.000384 -2.961535 4.669391 1.555587 2.327724 -4.180713 -7.224651 -2.178906 11.193908 -0.509993 -2.007070 -0.876053 0.456847 5.179714 -4.005801 13.675776 0.538683 0.225817 -9.038998 -1.556338 -9.927556 -0.535019 -1.475389 0.574216 6.157536 2.054225 1.057171 -2.783588 0.808133 -1.949736 4.951121 -0.632677 -0.768733 3.115097 1.553303 2.059145 1.145406 -1.036175 1.578957 -0.816709 16.484766 -2.632140 25.397336 47.545652 -27.660361 17.311164 -1.022026 -23.673488 -4.947091 3.006649 -8.543178 0.000000 0.000000 0.000000 0.000000 0.000000 0.000000 0.000000 0.000000 0.000000 0.000000 0.000000 0.000000 0.000000 0.000000 0.000000 0.000000 0.000000 0.000000 0.000000 0.000000 0.000000 0.000000 0.000000 0.000000 0.000000 0.000000 0.000000 0.000000 0.000000 0.000000 0.000000 0.000000 0.000000 0.000000 0.000000 0.000000 0.000000 0.000000 0.000000 0.000000 0.000000 0.000000 -0.685320 -15.986884 7.260651 31.974555 -48.742981 30.723510 14.858717 3.005555 27.896670 -1.395510 -7.049347 4.697801 0.000000 0.000000 0.000000 0.000000 0.000000 0.000000 0.000000 0.000000 0.000000 0.000000 0.000000 0.000000 0.000000 0.000000 0.000000 0.000000 0.000000 0.000000 0.000000 0.000000 0.000000 0.000000 0.000000 0.000000 0.000000 0.000000 0.000000 0.000000 0.000000 0.000000 0.000000 0.000000 0.000000 0.000000 0.000000 0.000000 0.000000 0.000000 0.000000 0.000000 0.000000 0.000000
0.010554 -0.053486 1.224586 -6.779159 -1.182241 2.183413 7.124022 -2.959465 4.714934 1.472557 2.303485 -4.137167 -7.253334 -2.206550 11.219119 -0.511059 -2.017986 -0.890031 0.544454 5.138504 -3.991372 13.653390 0.558737 0.247357 -9.091015 -1.484784 -9.927450 -0.525928 -1.478437 0.580938 6.067491 2.051048 1.055994 -2.679034 0.785913 -1.939702 4.917053 -0.613316 -0.778654 3.134596 1.561027 2.018407 1.042289 -0.995373 1.568002 -0.771892 16.488713 -2.608040 25.462070 47.588058 -27.693568 17.279803 -1.084351 -23.619926 -4.844484 3.002689 -8.555136 0.000000 0.000000 0.000000 0.000000 0.000000 0.000000 0.000000 0.000000 0.000000 0.000000 0.000000 0.000000 0.000000 0.000000 0.000000 0.000000 0.000000 0.000000 0.000000 0.000000 0.000000 0.000000 0.000000 0.000000 0.000000 0.000000 0.000000 0.000000 0.000000 0.000000 0.000000 0.000000 0.000000 0.000000 0.000000 0.000000 0.000000 0.000000 0.000000 0.000000 0.000000 0.000000 -0.657857 -15.980447 7.268172 32.031667 -48.800747 30.766192 14.882811 3.060983 27.835377 -1.351064 -7.092242 4.720862 0.000000 0.000000 0.000000 0.000000 0.000000 0.000000 0.000000 0.000000 0.000000 0.000000 0.000000 0.000000 0.000000 0.000000 0.000000 0.000000 0.000000 0.000000 0.000000 0.000000 0.000000 0.000000 0.000000 0.000000 0.000000 0.000000 0.000000 0.000000 0.000000 0.000000 0.000000 0.000000 0.000000 0.000000 0.000000 0.000000 0.000000 0.000000 0.000000 0.000000 0.000000 0.000000
0.010594 -0.052493 1.224459 -6.754700 -1.165286 2.127550 7.207741 -2.961349 4.760879 1.371784 2.284564 -4.117542 -7.270498 -2.229214 11.254690 -0.517383 -2.044549 -0.915486 0.563966 5.106560 -3.968726 13.661880 0.560298 0.263101 -9.172677 -1.410366 -9.924196 -0.515359 -1.463223 0.601553 5.984343 2.043686 1.054184 -2.545081 0.765702 -1.944679 4.840173 -0.594534 -0.785740 3.098212 1.575821 2.005724 0.944927 -0.949832 1.585197 -0.720057 16.520029 -2.588114 25.501673 47.561906 -27.658110 17.169918 -1.084044 -23.662041 -4.975418 2.965319 -8.648545 0.000000 0.000000 0.000000 0.000000 0.000000 0.000000 0.000000 0.000000 0.000000 0.000000 0.000000 0.000000 0.000000 0.000000 0.000000 0.000000 0.000000 0.000000 0.000000 0.000000 0.000000 0.000000 0.000000 0.000000 0.000000 0.000000 0.000000 0.000000 0.000000 0.000000 0.000000 0.000000 0.000000 0.000000 0.000000 0.000000 0.000000 0.000000 0.000000 0.000000 0.000000 0.000000 -0.612224 -16.023834 7.276562 32.055403 -48.771573 30.753134 14.872009 3.048507 27.891670 -1.458896 -7.068400 4.748821 0.000000 0.000000 0.000000 0.000000 0.000000 0.000000 0.000000 0.000000 0.000000 0.000000 0.000000 0.000000 0.000000 0.000000 0.000000 0.000000 0.000000 0.000000 0.000000 0.000000 0.000000 0.000000 0.000000 0.000000 0.000000 0.000000 0.000000 0.000000 0.000000 0.000000 0.000000 0.000000 0.000000 0.000000 0.000000 0.000000 0.000000 0.000000 0.000000 0.000000 0.000000 0.000000
0.010936 -0.051512 1.224276 -6.710965 -1.170488 2.093385 7.238407 -2.966321 4.779736 1.312657 2.283354 -4.109781 -7.282277 -2.251166 11.271635 -0.516871 -2.061788 -0.931241 0.579387 5.085183 -3.919975 13.635852 0.558340 0.280918 -9.262441 -1.306987 -9.938048 -0.505873 -1.450950 0.613590 5.873366 2.056719 1.061420 -2.445220 0.750329 -1.961019 4.793513 -0.588663 -0.782904 3.107756 1.599700 1.985197 0.858145 -0.927205 1.575687 -0.673828 16.506055 -2.613191 25.547002 47.557996 -27.620000 17.108025 -1.064494 -23.710476 -5.045276 2.890307 -8.716929 0.000000 0.000000 0.000000 0.000000 0.000000 0.000000 0.000000 0.000000 0.000000 0.000000 0.000000 0.000000 0.000000 0.000000 0.000000 0.000000 0.000000 0.000000 0.000000 0.000000 0.000000 0.000000 0.000000 0.000000 0.000000 0.000000 0.000000 0.000000 0.000000 0.000000 0.000000 0.000000 0.000000 0.000000 0.000000 0.000000 0.000000 0.000000 0.000000 0.000000 0.000000 0.000000 -0.567389 -16.026298 7.296235 32.085157 -48.783227 30.745822 14.863296 3.012865 27.960124 -1.520547 -7.051341 4.759627 0.000000 0.000000 0.000000 0.000000 0.000000 0.000000 0.000000 0.000000 0.000000 0.000000 0.000000 0.000000 0.000000 0.000000 0.000000 0.000000 0.000000 0.000000 0.000000 0.000000 0.000000 0.000000 0.000000 0.000000 0.000000 0.000000 0.000000 0.000000 0.000000 0.000000 0.000000 0.000000 0.000000 0.000000 0.000000 0.000000 0.000000 0.000000 0.000000 0.000000 0.000000 0.000000
